<svg width="20" height="20" viewBox="0 0 20 20" xmlns="http://www.w3.org/2000/svg">
    <rect x="0.5" y="5.612" width="19" height="8.776" stroke="#444" style="fill:none;stroke-width:1px;"/>
    <path d="M17.896,9.72C17.86,9.677 17.389,9.132 16.645,8.619L16.141,9.122C16.628,9.443 16.999,9.794 17.198,10C16.762,10.451 15.5,11.603 14,11.603C13.892,11.603 13.785,11.596 13.679,11.585L13.075,12.189C13.37,12.263 13.68,12.307 14,12.307C16.147,12.307 17.826,10.363 17.896,10.28C18.035,10.118 18.035,9.882 17.896,9.72ZM17.364,7.292C17.364,7.27 17.355,7.249 17.34,7.234L16.766,6.66C16.734,6.628 16.683,6.628 16.651,6.66L15.365,7.946C14.943,7.792 14.483,7.693 14,7.693C11.853,7.693 10.174,9.637 10.104,9.72C9.965,9.882 9.965,10.118 10.104,10.281C10.146,10.33 10.76,11.04 11.705,11.606L10.66,12.651C10.645,12.666 10.636,12.687 10.636,12.708C10.636,12.73 10.645,12.751 10.66,12.766L11.234,13.34C11.25,13.356 11.271,13.364 11.292,13.364C11.313,13.364 11.333,13.356 11.349,13.34L17.34,7.349C17.355,7.334 17.364,7.313 17.364,7.292ZM10.802,10C11.097,9.695 11.768,9.072 12.635,8.699C12.466,8.956 12.367,9.263 12.367,9.594C12.367,9.973 12.497,10.321 12.714,10.597L12.216,11.095C11.554,10.728 11.047,10.254 10.802,10Z" style="fill:rgb(68,68,68);fill-rule:nonzero;"/>
</svg>
