<svg width="30" height="30" viewBox="0 0 30 30" xmlns="http://www.w3.org/2000/svg">
        <rect x="1" y="9" width="28" height="12" stroke="#444" style="fill:none;stroke-width:2px;"/>
        <path d="M25.87,14.65C25.825,14.596 25.236,13.915 24.306,13.273L23.677,13.903C24.285,14.304 24.749,14.743 24.998,15C24.452,15.564 22.874,17.003 21,17.003C20.865,17.003 20.731,16.995 20.599,16.981L19.843,17.736C20.213,17.828 20.6,17.883 21,17.883C23.683,17.883 25.783,15.454 25.87,15.35C26.043,15.147 26.043,14.853 25.87,14.65ZM25.205,11.615C25.205,11.588 25.194,11.562 25.175,11.543L24.457,10.825C24.417,10.785 24.353,10.785 24.314,10.825L22.706,12.432C22.178,12.24 21.604,12.117 21,12.117C18.317,12.117 16.218,14.546 16.13,14.65C15.957,14.853 15.957,15.147 16.13,15.351C16.182,15.412 16.95,16.3 18.131,17.008L16.825,18.314C16.806,18.333 16.795,18.358 16.795,18.385C16.795,18.412 16.806,18.438 16.825,18.457L17.543,19.175C17.563,19.195 17.589,19.205 17.615,19.205C17.641,19.205 17.667,19.195 17.686,19.175L25.175,11.686C25.194,11.667 25.205,11.642 25.205,11.615ZM17.002,15C17.371,14.619 18.21,13.84 19.294,13.373C19.082,13.695 18.958,14.079 18.958,14.492C18.958,14.966 19.121,15.401 19.392,15.747L18.77,16.368C17.942,15.909 17.309,15.317 17.002,15Z" style="fill:rgb(68,68,68);fill-rule:nonzero;"/>

</svg>
