<svg width="100%" height="100%" viewBox="0 0 20 20" version="1.1" xmlns="http://www.w3.org/2000/svg" xmlns:xlink="http://www.w3.org/1999/xlink" xml:space="preserve" xmlns:serif="http://www.serif.com/" style="fill-rule:evenodd;clip-rule:evenodd;stroke-linejoin:round;stroke-miterlimit:2;">
    <rect x="7" y="4" width="12" height="1"/>
    <rect x="7" y="10" width="12" height="1"/>
    <rect x="7" y="16" width="12" height="1"/>
    <path d="M3,8.5C4.104,8.5 5,9.396 5,10.5C5,11.604 4.104,12.5 3,12.5C1.896,12.5 1,11.604 1,10.5C1,9.396 1.896,8.5 3,8.5ZM3,9.5C3.552,9.5 4,9.948 4,10.5C4,11.052 3.552,11.5 3,11.5C2.448,11.5 2,11.052 2,10.5C2,9.948 2.448,9.5 3,9.5Z"/>
    <path d="M3,14.5C4.104,14.5 5,15.396 5,16.5C5,17.604 4.104,18.5 3,18.5C1.896,18.5 1,17.604 1,16.5C1,15.396 1.896,14.5 3,14.5ZM3,15.5C3.552,15.5 4,15.948 4,16.5C4,17.052 3.552,17.5 3,17.5C2.448,17.5 2,17.052 2,16.5C2,15.948 2.448,15.5 3,15.5Z"/>
    <circle cx="3" cy="4.5" r="2"/>
    <path d="M3,2.5C4.104,2.5 5,3.396 5,4.5C5,5.604 4.104,6.5 3,6.5C1.896,6.5 1,5.604 1,4.5C1,3.396 1.896,2.5 3,2.5ZM3,3.5C3.552,3.5 4,3.948 4,4.5C4,5.052 3.552,5.5 3,5.5C2.448,5.5 2,5.052 2,4.5C2,3.948 2.448,3.5 3,3.5Z"/>
</svg>
