<svg width="100%" height="100%" viewBox="0 0 20 20" version="1.1" xmlns="http://www.w3.org/2000/svg" xmlns:xlink="http://www.w3.org/1999/xlink" xml:space="preserve" xmlns:serif="http://www.serif.com/" style="fill-rule:evenodd;clip-rule:evenodd;stroke-linejoin:round;stroke-miterlimit:2;">
    <path d="M1,14L5,14L5,18L1,18L1,14ZM1.993,14.992L4.008,14.992C4.008,14.993 4.008,17.008 4.008,17.008C4.007,17.008 1.992,17.008 1.992,17.008L1.993,14.992Z" />
    <path d="M1,8L5,8L5,12L1,12L1,8ZM1.993,8.992L4.008,8.992C4.008,8.993 4.008,11.008 4.008,11.008C4.007,11.008 1.992,11.008 1.992,11.008L1.993,8.992Z" />
    <rect x="7" y="4" width="12" height="1" />
    <rect x="7" y="10" width="12" height="1" />
    <rect x="7" y="16" width="12" height="1" />
    <rect x="1" y="2" width="4" height="4" />
    <path d="M1,2L5,2L5,6L1,6L1,2ZM1.993,2.992L4.008,2.992C4.008,2.993 4.008,5.008 4.008,5.008C4.007,5.008 1.992,5.008 1.992,5.008L1.993,2.992Z" />
</svg>
